<svg xmlns="http://www.w3.org/2000/svg" xmlns:xlink="http://www.w3.org/1999/xlink" width="1024" zoomAndPan="magnify" viewBox="0 0 768 767.999994" height="1024" preserveAspectRatio="xMidYMid meet" version="1.0"><defs><clipPath id="74ee8813d4"><path d="M 234 36.261719 L 734 36.261719 L 734 536 L 234 536 Z M 234 36.261719 " clip-rule="nonzero"/></clipPath><clipPath id="4316a60dab"><path d="M 39 515 L 256 515 L 256 730.761719 L 39 730.761719 Z M 39 515 " clip-rule="nonzero"/></clipPath><clipPath id="a98fc96289"><path d="M 391.308594 191.570312 L 581.058594 191.570312 L 581.058594 464 L 391.308594 464 Z M 391.308594 191.570312 " clip-rule="nonzero"/></clipPath></defs><g clip-path="url(#74ee8813d4)"><path fill="#1d4ed8" d="M 484.28125 36.304688 C 621.84375 36.304688 733.75 148.210938 733.75 285.769531 C 733.75 423.332031 621.84375 535.234375 484.28125 535.234375 C 346.722656 535.234375 234.816406 423.332031 234.816406 285.769531 C 234.816406 148.210938 346.722656 36.304688 484.28125 36.304688 Z M 484.28125 496.03125 C 600.21875 496.03125 694.542969 401.707031 694.542969 285.769531 C 694.542969 169.835938 600.21875 75.507812 484.28125 75.507812 C 368.347656 75.507812 274.023438 169.835938 274.023438 285.769531 C 274.023438 401.707031 368.347656 496.03125 484.28125 496.03125 Z M 484.28125 496.03125 " fill-opacity="1" fill-rule="nonzero"/></g><path fill="#1d4ed8" d="M 234.359375 500.738281 L 278.390625 456.707031 C 289.332031 469.859375 301.5 481.953125 314.726562 492.804688 L 270.003906 537.527344 C 267.171875 529.394531 262.511719 521.765625 256.027344 515.28125 L 254.777344 514.03125 C 248.882812 508.132812 241.9375 503.65625 234.359375 500.738281 Z M 234.359375 500.738281 " fill-opacity="1" fill-rule="nonzero"/><g clip-path="url(#4316a60dab)"><path fill="#1d4ed8" d="M 184.136719 526.941406 C 191.808594 519.269531 202.058594 515.046875 213 515.046875 C 223.941406 515.046875 234.195312 519.269531 241.867188 526.941406 L 243.117188 528.191406 C 250.785156 535.863281 255.007812 546.109375 255.007812 557.054688 C 255.007812 567.996094 250.785156 578.246094 243.117188 585.917969 L 110.433594 718.601562 C 102.761719 726.269531 92.511719 730.492188 81.570312 730.492188 C 70.625 730.492188 60.375 726.269531 52.703125 718.601562 L 51.453125 717.351562 C 35.539062 701.433594 35.539062 675.535156 51.453125 659.621094 Z M 184.136719 526.941406 " fill-opacity="1" fill-rule="nonzero"/></g><path fill="#1d4ed8" d="M 485.765625 192.535156 C 421.175781 192.535156 361.730469 221.980469 322.679688 273.3125 C 316.589844 281.304688 316.589844 292.472656 322.675781 300.453125 C 361.730469 351.796875 421.175781 381.242188 485.765625 381.242188 C 550.355469 381.242188 609.800781 351.796875 648.851562 300.464844 C 654.941406 292.472656 654.941406 281.316406 648.855469 273.320312 C 609.800781 221.980469 550.355469 192.535156 485.765625 192.535156 Z M 631.066406 286.921875 C 596.273438 332.65625 543.3125 358.890625 485.765625 358.890625 C 428.222656 358.890625 375.261719 332.65625 340.464844 286.855469 C 375.261719 241.121094 428.222656 214.886719 485.765625 214.886719 C 543.3125 214.886719 596.273438 241.121094 631.066406 286.855469 C 631.066406 286.859375 631.066406 286.914062 631.066406 286.921875 Z M 631.066406 286.921875 " fill-opacity="1" fill-rule="nonzero"/><path fill="#1d4ed8" d="M 485.765625 221.464844 C 449.691406 221.464844 420.339844 250.8125 420.339844 286.886719 C 420.339844 322.964844 449.691406 352.3125 485.765625 352.3125 C 521.84375 352.3125 551.191406 322.964844 551.191406 286.886719 C 551.191406 250.8125 521.84375 221.464844 485.765625 221.464844 Z M 485.765625 329.960938 C 462.015625 329.960938 442.695312 310.636719 442.695312 286.886719 C 442.695312 263.140625 462.015625 243.816406 485.765625 243.816406 C 509.515625 243.816406 528.839844 263.140625 528.839844 286.886719 C 528.839844 310.636719 509.515625 329.960938 485.765625 329.960938 Z M 485.765625 329.960938 " fill-opacity="1" fill-rule="nonzero"/><g clip-path="url(#a98fc96289)"><path fill="#1d4ed8" d="M 486.328125 191.660156 C 538.804688 191.660156 581.34375 234.203125 581.34375 286.679688 C 581.34375 304.9375 576.191406 321.988281 567.265625 336.46875 C 556.554688 354.207031 545.847656 371.945312 535.140625 389.6875 C 522.097656 410.886719 511.542969 428.042969 498.503906 449.242188 C 487.007812 467.933594 486.230469 468.390625 474.671875 449.605469 C 461.695312 428.511719 450.789062 410.78125 437.8125 389.6875 C 427.128906 372.148438 416.449219 354.605469 405.761719 337.066406 C 396.609375 322.460938 391.308594 305.191406 391.308594 286.679688 C 391.308594 234.203125 433.851562 191.660156 486.328125 191.660156 Z M 486.328125 239.300781 C 509.851562 239.300781 528.925781 258.371094 528.925781 281.894531 C 528.925781 305.421875 509.855469 324.492188 486.328125 324.492188 C 462.800781 324.492188 443.730469 305.421875 443.730469 281.894531 C 443.730469 258.371094 462.800781 239.300781 486.328125 239.300781 Z M 486.328125 239.300781 " fill-opacity="1" fill-rule="evenodd"/></g></svg>